<svg width="39" height="37" viewBox="0 0 39 37" fill="none" xmlns="http://www.w3.org/2000/svg">
<path d="M0 36.1929L2.45449 36.1827L4.90873 36.1725L6.1646 34.7881C6.85543 34.0266 7.50196 33.3158 7.60156 33.2086C7.85117 32.9395 9.98508 30.5844 10.3049 30.2251C10.6784 29.8053 17.1782 22.6408 17.2822 22.534C17.3302 22.485 17.7521 22.0193 18.22 21.4991C18.6879 20.979 19.0926 20.5534 19.1193 20.5534C19.146 20.5534 19.5507 20.979 20.0186 21.4991C20.4865 22.0193 20.9091 22.4855 20.9576 22.5353C21.0626 22.6429 27.558 29.8027 27.9339 30.2251C28.2513 30.5819 30.3857 32.9375 30.6373 33.2086C30.7366 33.3158 31.3832 34.0266 32.074 34.7881L33.3299 36.1725L35.7841 36.1827L38.2386 36.1929V18.0965V0L35.7858 0.0101799L33.3333 0.0203599L32.9929 0.390848C32.8059 0.5946 32.4305 1.00704 32.1591 1.30735C31.8875 1.60766 31.3902 2.15599 31.054 2.52601C30.7175 2.89604 30.164 3.50591 29.8236 3.88133C28.3612 5.49423 27.943 5.95511 27.2218 6.74775C26.8021 7.20893 26.3582 7.70019 26.2353 7.83963C26.1125 7.97906 25.7797 8.3477 25.4958 8.65865C24.9237 9.28564 23.8951 10.4198 23.4622 10.9012C23.3078 11.0727 23.0359 11.371 22.8578 11.5641C22.5206 11.9293 21.1844 13.4047 20.7914 13.8455C20.6671 13.9849 20.3566 14.3272 20.1008 14.606C19.8454 14.8849 19.5326 15.2315 19.4058 15.3763C19.2654 15.5366 19.1931 15.6175 19.1216 15.6192C19.0485 15.6209 18.9762 15.54 18.8327 15.3763C18.706 15.2315 18.3932 14.8849 18.1377 14.606C17.8823 14.3272 17.5715 13.9849 17.4472 13.8455C17.0541 13.4047 15.718 11.9293 15.3808 11.5641C15.2026 11.371 14.9308 11.0727 14.7763 10.9012C14.3434 10.4198 13.3152 9.28564 12.7428 8.65865C12.4589 8.3477 12.1261 7.97906 12.0032 7.83963C11.8804 7.70019 11.4365 7.20893 11.0168 6.74775C10.5971 6.28657 9.98337 5.61084 9.65276 5.24621C9.32215 4.88159 8.77325 4.27619 8.43286 3.90076C8.0927 3.52534 7.535 2.91115 7.19362 2.53588C6.85249 2.16046 6.35107 1.60766 6.07944 1.30735C5.80805 1.00704 5.4329 0.5946 5.2457 0.390848L4.9053 0.0203599L2.45277 0.0101799L0 0V18.0965V36.1929ZM8.60636 8.90605C8.76273 9.08096 10.6813 11.1981 12.8698 13.6107C15.0583 16.0232 16.8606 18.0256 16.875 18.0604C16.9019 18.1249 16.7465 18.3122 15.8421 19.3055C15.5589 19.6164 15.0529 20.1737 14.7174 20.5437C14.3819 20.9136 13.832 21.5191 13.4955 21.8892C12.6424 22.827 11.4088 24.1897 11.1387 24.4923C11.0143 24.6317 10.6808 25.0002 10.3974 25.3113C9.87741 25.8822 9.18389 26.6464 8.03569 27.9144C7.27952 28.7494 7.06099 28.99 6.5745 29.5232C5.8149 30.3559 4.67233 31.6187 4.41122 31.9144C4.0833 32.2858 3.84495 32.5261 3.80457 32.5261C3.78793 32.5261 3.77447 26.0327 3.77447 18.0965C3.77447 10.1602 3.79528 3.66724 3.82073 3.66771C3.84642 3.66832 4.86957 4.77547 6.09461 6.12832C7.3199 7.48101 8.44999 8.73114 8.60636 8.90605ZM34.434 32.5261C34.3934 32.5261 34.154 32.2846 33.8278 31.9144C33.5922 31.6471 33.1292 31.1356 31.6629 29.5232C31.0215 28.8178 30.8472 28.6258 30.2029 27.9144C29.8583 27.5338 29.3009 26.9194 28.9646 26.5496C27.9611 25.4457 27.341 24.7611 27.1004 24.4923C26.82 24.1787 25.5594 22.7868 24.7521 21.8989C24.4205 21.5343 23.8707 20.9287 23.5303 20.5534C23.1899 20.178 22.6796 19.6164 22.3965 19.3055C21.492 18.3122 21.3366 18.1249 21.3636 18.0604C21.378 18.0256 23.1803 16.0232 25.3688 13.6107C27.5573 11.1981 29.4758 9.08096 29.6322 8.90605C31.2297 7.11839 34.3814 3.66848 34.4179 3.66771C34.4433 3.66724 34.4641 10.1602 34.4641 18.0965C34.4641 26.0327 34.4506 32.5261 34.434 32.5261Z" fill="#FF4D4D"/>
</svg>
